#!OML:ASF X:\für Bonn\!DataBase\2005_08_10_Bjorn_Final\c3d\bjorn.ASF
:FULLY-SPECIFIED
:DEGREES
126
root -6.20366 18.7158 -1.50086 401.078 94.9581 403.171
lowerback 5.08149 0.0370863 -8.01136
upperback 15.4766 1.61182 -1.42428
thorax 14.1408 0.3511 3.07795
lowerneck 10.0076 -12.0964 -4.28569
upperneck -3.25679 -15.7678 19.6645
head -0.646581 -8.47586 6.96721
rclavicle 1.35174e-014 1.59028e-014
rhumerus -27.9829 -19.1958 -83.8095
rradius 40.0145
rwrist 5.35163
rhand -10.2163 15.8679
rfingers 7.12502
rthumb 15.7753 -13.5092
lclavicle 1.35174e-014 1.59028e-014
lhumerus -15.8379 -4.08805 73.5257
lradius 54.5843
lwrist -8.00226
lhand -41.5696 -10.3421
lfingers 7.12502
lthumb -14.4805 19.1326
rfemur -4.45334 1.36782 14.9609
rtibia 59.2727
rfoot 5.36331 4.0537
rtoes -25.3503
lfemur -24.2669 7.21333 -11.1646
ltibia 40.0307
lfoot -5.46699 -12.4283
ltoes -0.0583802
127
root -6.13212 18.7199 -1.53874 401.119 94.885 403.35
lowerback 5.25993 0.0426837 -8.34183
upperback 15.4987 1.6303 -1.50468
thorax 14.069 0.332138 3.16876
lowerneck 9.94371 -12.2508 -4.17586
upperneck -3.07216 -15.9869 19.7726
head -0.554863 -8.57677 6.96566
rclavicle -2.38542e-014 -2.06736e-014
rhumerus -28.0222 -19.0384 -83.9962
rradius 40.162
rwrist 5.33382
rhand -10.2973 16.0307
rfingers 7.12502
rthumb 15.6974 -13.3526
lclavicle -2.38542e-014 -2.06736e-014
lhumerus -15.7051 -4.08252 73.3038
lradius 55.104
lwrist -7.84253
lhand -41.7666 -10.4046
lfingers 7.12502
lthumb -14.6703 19.0564
rfemur -5.67974 0.994211 14.7054
rtibia 61.3315
rfoot 7.17155 3.2956
rtoes -23.5675
lfemur -23.8595 7.16545 -11.261
ltibia 40.0966
lfoot -5.74465 -12.4473
ltoes 0.353193
128
root -6.063 18.7224 -1.57623 401.88 94.809 404.276
lowerback 5.45803 0.078431 -8.56271
upperback 15.5379 1.69039 -1.61194
thorax 13.9994 0.350553 3.17176
lowerneck 9.91057 -12.412 -4.00319
upperneck -2.95308 -16.1951 19.9352
head -0.48947 -8.6785 6.97694
rclavicle 1.74931e-014 2.38542e-014
rhumerus -28.0265 -18.9993 -84.2335
rradius 40.2819
rwrist 5.31856
rhand -10.4083 16.1827
rfingers 7.12502
rthumb 15.5904 -13.2089
lclavicle 1.74931e-014 2.38542e-014
lhumerus -15.5222 -4.2181 73.0478
lradius 55.6618
lwrist -7.57497
lhand -41.9534 -10.3131
lfingers 7.12502
lthumb -14.8503 19.1347
rfemur -6.90648 0.629232 14.4982
rtibia 63.3766
rfoot 8.87035 2.6299
rtoes -21.8346
lfemur -23.4294 7.13026 -11.3011
ltibia 40.1787
lfoot -6.02208 -12.4667
ltoes 0.744968
129
root -5.99494 18.7245 -1.61313 402.66 94.7029 405.209
lowerback 5.6525 0.117491 -8.79636
upperback 15.5546 1.74976 -1.72079
thorax 13.9042 0.367628 3.17938
lowerneck 9.85477 -12.5614 -3.89019
upperneck -2.74889 -16.4098 20.0666
head -0.392241 -8.7761 6.98132
rclavicle 7.95139e-015 2.8625e-014
rhumerus -28.0719 -18.9359 -84.4403
rradius 40.3845
rwrist 5.31556
rhand -10.4861 16.4395
rfingers 7.12502
rthumb 15.5155 -12.958
lclavicle 7.95139e-015 2.8625e-014
lhumerus -15.3948 -4.39573 72.8243
lradius 56.2473
lwrist -7.21599
lhand -42.2185 -10.181
lfingers 7.12502
lthumb -15.1056 19.2478
rfemur -8.15483 0.284685 14.264
rtibia 65.3855
rfoot 10.345 2.07134
rtoes -20.2889
lfemur -23.0094 7.11772 -11.3691
ltibia 40.244
lfoot -6.29277 -12.4595
ltoes 1.03664
130
root -5.92827 18.7267 -1.64997 403.75 94.5741 406.443
lowerback 5.81582 0.155149 -9.02223
upperback 15.588 1.8124 -1.83016
thorax 13.8495 0.385876 3.18278
lowerneck 9.8334 -12.6794 -3.81144
upperneck -2.63118 -16.5733 20.2478
head -0.325184 -8.85529 7.01312
rclavicle 4.77083e-015 1.74931e-014
rhumerus -28.0712 -18.8531 -84.6661
rradius 40.4925
rwrist 5.31681
rhand -10.6654 16.6187
rfingers 7.12502
rthumb 15.3428 -12.7921
lclavicle 4.77083e-015 1.74931e-014
lhumerus -15.2253 -4.49842 72.6352
lradius 56.8087
lwrist -6.92391
lhand -42.4929 -10.041
lfingers 7.12502
lthumb -15.37 19.3677
rfemur -9.44568 -0.0505192 14.0276
rtibia 67.3619
rfoot 11.6173 1.76524
rtoes -19.3953
lfemur -22.5871 7.12353 -11.4458
ltibia 40.2987
lfoot -6.59115 -12.4252
ltoes 1.18461
131
root -5.86203 18.7313 -1.68612 405.007 94.4707 407.867
lowerback 6.02774 0.190603 -9.20771
upperback 15.6024 1.85851 -1.92233
thorax 13.7408 0.401613 3.18073
lowerneck 9.89118 -12.7738 -3.81727
upperneck -2.53808 -16.7099 20.4613
head -0.2715 -8.9264 7.07459
rclavicle 1.03368e-014 -1.59028e-015
rhumerus -28.1573 -18.7308 -84.8409
rradius 40.6485
rwrist 5.22797
rhand -10.8005 16.8383
rfingers 7.12502
rthumb 15.2127 -12.5824
lclavicle 1.03368e-014 -1.59028e-015
lhumerus -15.0942 -4.61362 72.4691
lradius 57.3656
lwrist -6.70373
lhand -42.7646 -9.8562
lfingers 7.12502
lthumb -15.6316 19.5323
rfemur -10.715 -0.409719 13.8201
rtibia 69.2778
rfoot 12.7019 1.74084
rtoes -19.1033
lfemur -22.1246 7.11734 -11.4892
ltibia 40.3115
lfoot -6.85272 -12.4038
ltoes 1.61394
132
root -5.79589 18.7377 -1.72157 406.605 94.3778 409.645
lowerback 6.21495 0.217464 -9.37455
upperback 15.6448 1.89701 -1.99139
thorax 13.6832 0.412002 3.1942
lowerneck 9.95178 -12.8457 -3.89646
upperneck -2.49841 -16.8203 20.6843
head -0.22968 -8.98778 7.15228
rclavicle -3.18055e-015 1.43125e-014
rhumerus -28.149 -18.6136 -85.0028
rradius 40.7254
rwrist 5.1954
rhand -10.9534 17.0742
rfingers 7.12502
rthumb 15.0653 -12.3576
lclavicle -3.18055e-015 1.43125e-014
lhumerus -14.9098 -4.60734 72.3775
lradius 57.8727
lwrist -6.56286
lhand -43.0298 -9.73864
lfingers 7.12502
lthumb -15.8871 19.6297
rfemur -11.9706 -0.732662 13.6547
rtibia 71.1384
rfoot 13.5812 1.91188
rtoes -18.9474
lfemur -21.6342 7.14901 -11.5101
ltibia 40.3079
lfoot -7.11991 -12.3912
ltoes 1.71258
133
root -5.73111 18.7455 -1.75607 408.344 94.2894 411.552
lowerback 6.39964 0.231566 -9.55872
upperback 15.6701 1.91129 -2.04173
thorax 13.6085 0.406652 3.23636
lowerneck 10.0337 -12.8838 -4.01442
upperneck -2.44535 -16.8922 20.8743
head -0.191696 -9.02923 7.22798
rclavicle 1.66979e-014 2.06736e-014
rhumerus -28.1463 -18.4554 -85.1369
rradius 40.7754
rwrist 5.20034
rhand -11.1295 17.2619
rfingers 7.12502
rthumb 14.8957 -12.1826
lclavicle 1.66979e-014 2.06736e-014
lhumerus -14.7398 -4.53566 72.3175
lradius 58.3111
lwrist -6.5487
lhand -43.2999 -9.6286
lfingers 7.12502
lthumb -16.1471 19.7188
rfemur -13.2412 -1.07128 13.5068
rtibia 72.9475
rfoot 14.2156 2.22542
rtoes -18.9243
lfemur -21.1567 7.1645 -11.5291
ltibia 40.2862
lfoot -7.42225 -12.3417
ltoes 1.69858
134
root -5.66793 18.7515 -1.7901 410.158 94.2047 413.531
lowerback 6.57974 0.236057 -9.7158
upperback 15.706 1.91582 -2.10604
thorax 13.5515 0.40076 3.24783
lowerneck 10.088 -12.9002 -4.15558
upperneck -2.38116 -16.9403 21.088
head -0.144866 -9.05718 7.31209
rclavicle 7.95139e-016 1.59028e-015
rhumerus -28.1241 -18.2958 -85.2894
rradius 40.8369
rwrist 5.17554
rhand -11.1858 17.4151
rfingers 7.12502
rthumb 14.8415 -12.0333
lclavicle 7.95139e-016 1.59028e-015
lhumerus -14.543 -4.43076 72.2517
lradius 58.7417
lwrist -6.50486
lhand -43.5191 -9.69067
lfingers 7.12502
lthumb -16.3583 19.6395
rfemur -14.5317 -1.43398 13.365
rtibia 74.7295
rfoot 14.647 2.6505
rtoes -19.0395
lfemur -20.6937 7.22326 -11.5461
ltibia 40.2788
lfoot -7.68111 -12.3208
ltoes 1.88711
135
root -5.608 18.7553 -1.82423 411.807 94.1431 415.359
lowerback 6.79423 0.250266 -9.83461
upperback 15.7481 1.9303 -2.16921
thorax 13.4791 0.405793 3.23946
lowerneck 10.1492 -12.9247 -4.27402
upperneck -2.34863 -16.9914 21.3051
head -0.109419 -9.08907 7.39604
rclavicle 4.77083e-015 2.70347e-014
rhumerus -28.0972 -18.2069 -85.4383
rradius 40.8937
rwrist 5.08538
rhand -11.2979 17.541
rfingers 7.12502
rthumb 14.7335 -11.9154
lclavicle 4.77083e-015 2.70347e-014
lhumerus -14.2929 -4.33312 72.2199
lradius 59.1198
lwrist -6.56543
lhand -43.7408 -9.74409
lfingers 7.12502
lthumb -16.5717 19.5683
rfemur -15.8143 -1.85944 13.2367
rtibia 76.4723
rfoot 14.9018 3.31885
rtoes -19.6154
lfemur -20.2547 7.26734 -11.566
ltibia 40.2867
lfoot -7.9791 -12.2666
ltoes 1.71187
136
root -5.54901 18.7575 -1.85794 413.549 94.1114 417.279
lowerback 6.9974 0.246983 -9.94392
upperback 15.797 1.9189 -2.20285
thorax 13.4247 0.395484 3.25773
lowerneck 10.2166 -12.9276 -4.45924
upperneck -2.32133 -17.0234 21.5048
head -0.0745566 -9.11154 7.48559
rclavicle 3.49861e-014 4.77083e-014
rhumerus -28.0742 -18.0612 -85.542
rradius 40.9634
rwrist 5.05589
rhand -11.3765 17.6732
rfingers 7.12502
rthumb 14.6578 -11.7887
lclavicle 3.49861e-014 4.77083e-014
lhumerus -14.0274 -4.13365 72.2434
lradius 59.4622
lwrist -6.65744
lhand -43.8329 -9.77435
lfingers 7.12502
lthumb -16.6604 19.5306
rfemur -17.0867 -2.3192 13.1467
rtibia 78.1734
rfoot 15.0096 4.05682
rtoes -20.4774
lfemur -19.832 7.30049 -11.5517
ltibia 40.3287
lfoot -8.28448 -12.2444
ltoes 1.58218
137
root -5.49063 18.7586 -1.89159 415.132 94.0662 419.029
lowerback 7.20728 0.251262 -10.0162
upperback 15.8302 1.91946 -2.28762
thorax 13.3454 0.401613 3.19941
lowerneck 10.2967 -12.9294 -4.55238
upperneck -2.28713 -17.0399 21.7023
head -0.0502533 -9.1266 7.56339
rclavicle -1.27222e-014 -3.33958e-014
rhumerus -28.0724 -17.9919 -85.7073
rradius 40.9903
rwrist 5.00831
rhand -11.5204 17.8413
rfingers 7.12502
rthumb 14.5191 -11.6306
lclavicle -1.27222e-014 -3.33958e-014
lhumerus -13.7559 -4.08368 72.1719
lradius 59.8015
lwrist -6.66088
lhand -43.9391 -9.8826
lfingers 7.12502
lthumb -16.7626 19.4138
rfemur -18.3664 -2.80978 13.0227
rtibia 79.8309
rfoot 15.0319 5.03091
rtoes -21.3295
lfemur -19.4437 7.3537 -11.5719
ltibia 40.3919
lfoot -8.58372 -12.2348
ltoes 1.4706
